# AST/ASF file generated using VICON BodyLanguage
# -----------------------------------------------
:version 1.10
:name VICON
:units
  mass 1.0
  length 0.45
  angle deg
:documentation
   .ast/.asf automatically generated from VICON data using
   VICON BodyBuilder and BodyLanguage model FoxedUp or BRILLIANT.MOD
:root
   order TX TY TZ RX RY RZ
   axis XYZ
   position 0 0 0  
   orientation 0 0 0 
:bonedata
  begin
     id 1 
     name lhipjoint
     direction 0.602128 -0.715006 0.355257 
     length 2.21237 
     axis 0 0 0  XYZ
  end
  begin
     id 2 
     name lfemur
     direction 0.34202 -0.939693 0  
     length 6.71649  
     axis 0 0 20  XYZ
    dof rx ry rz
    limits (-160.0 20.0)
           (-70.0 70.0)
           (-60.0 70.0)
  end
  begin
     id 3 
     name ltibia
     direction 0.34202 -0.939693 0   
     length 6.97123   
     axis 0 0 20   XYZ
    dof rx
    limits (-10.0 170.0)
  end
  begin
     id 4 
     name lfoot
     direction 0.0655697 -0.180151 0.981451   
     length 1.80924   
     axis -90 7.62852e-016 20   XYZ
    dof rx rz
    limits (-45.0 90.0)
           (-70.0 20.0)
  end
  begin
     id 5 
     name ltoes
     direction 1.53545e-011 -4.21827e-011 1   
     length 0.916331   
     axis -90 7.62852e-016 20   XYZ
    dof rx
    limits (-90.0 20.0)
  end
  begin
     id 6 
     name rhipjoint
     direction -0.625414 -0.698792 0.347201   
     length 2.2637  
     axis 0 0 0  XYZ 
  end
  begin
     id 7 
     name rfemur
     direction -0.34202 -0.939693 0   
     length 7.07595   
     axis 0 0 -20   XYZ
    dof rx ry rz
    limits (-160.0 20.0)
           (-70.0 70.0)
           (-70.0 60.0)
  end
  begin
     id 8 
     name rtibia
     direction -0.34202 -0.939693 0   
     length 7.22924   
     axis 0 0 -20   XYZ
    dof rx
    limits (-10.0 170.0)
 end
 begin
     id 9 
     name rfoot
     direction -0.0766747 -0.210662 0.974547   
     length 1.98482  
     axis -90 -7.62852e-016 -20   XYZ
    dof rx rz
    limits (-45.0 90.0)
           (-20.0 70.0)
  end
  begin
     id 10 
     name rtoes
     direction -1.53532e-011 -4.21867e-011 1   
     length 0.999842   
     axis -90 -7.62852e-016 -20   XYZ
    dof rx
    limits (-90.0 20.0)
  end
  begin
     id 11 
     name lowerback
     direction -0.0224668 0.997354 -0.0691422   
     length 2.09945   
     axis 0 0 0   XYZ
    dof rx ry rz
    limits (-20.0 45.0)
           (-30.0 30.0)
           (-30.0 30.0)
  end
  begin
     id 12 
     name upperback
     direction 0.0134698 0.998451 -0.0539888   
     length 2.09758   
     axis 0 0 0   XYZ
    dof rx ry rz
    limits (-20.0 45.0)
           (-30.0 30.0)
           (-30.0 30.0)
  end
  begin
     id 13 
     name thorax
     direction 0.0241905 0.99948 -0.0213333   
     length 2.10428   
     axis 0 0 0   XYZ
    dof rx ry rz
    limits (-20.0 45.0)
           (-30.0 30.0)
           (-30.0 30.0)
  end
  begin
     id 14 
     name lowerneck
     direction -0.00866847 0.995978 0.0891737   
     length 1.3959   
     axis 0 0 0   XYZ
    dof rx ry rz
    limits (-20.0 45.0)
           (-30.0 30.0)
           (-30.0 30.0)
  end
  begin
     id 15 
     name upperneck
     direction 0.0680679 0.992203 0.104404   
     length 1.39452   
     axis 0 0 0   XYZ
    dof rx ry rz
    limits (-20.0 45.0)
           (-30.0 30.0)
           (-30.0 30.0)
  end
  begin
     id 16
     name head
     direction 0.0242216 0.999358 0.0264054  
     length 1.40433  
     axis 0 0 0   XYZ
    dof rx ry rz
    limits (-20.0 45.0)
           (-30.0 30.0)
           (-30.0 30.0)
  end
  begin
     id 17 
     name lclavicle
     direction 0.929368 0.362991 -0.0671771  
     length 3.04887  
     axis 0 0 0   XYZ
    dof ry rz
    limits (-20.0 10.0)
           (0.0 20.0)
  end
  begin
     id 18 
     name lhumerus
     direction 1 -4.48967e-011 -7.13741e-028   
     length 4.77195   
     axis -180 -30 -90   XYZ
    dof rx ry rz
    limits (-60.0 90.0)
           (-90.0 90.0)
           (-90.0 90.0)
  end
  begin
     id 19
     name lradius
     direction 1 -4.48977e-011 3.60404e-027   
     length 2.98444   
     axis -180 -30 -90   XYZ
    dof rx
    limits (-10.0 170.0)
  end
  begin
     id 20
     name lwrist
     direction 1 -4.48997e-011 7.54877e-027   
     length 1.49222   
     axis -7.18178e-015 90 90   XYZ
    dof ry
    limits (-180.0 0.0)
 end
  begin
     id 21 
     name lhand
     direction 1 -4.489e-011 1.51105e-026   
     length 0.992285   
     axis -9.63605e-015 90 90   XYZ
    dof rx rz
    limits (-90.0 90.0)
           (-45.0 45.0)
  end
  begin
     id 22 
     name lfingers
     direction 1 -4.48998e-011 3.01948e-026   
     length 0.800006   
     axis -1.92718e-014 90 90   XYZ
    dof rx
    limits (0.0 90.0)
  end
  begin
     id 23
     name lthumb
     direction 0.707107 -6.34881e-011 0.707107   
     length 1.14865   
     axis -90 45 -3.53137e-014   XYZ
    dof rx rz
    limits (-45.0 45.0)
           (-45.0 45.0)
  end
  begin
     id 24 
     name rclavicle
     direction -0.945672 0.324529 0.0196374   
     length 3.4236  
     axis 0 0 0   XYZ 
    dof ry rz
    limits (-10.0 20.0)
           (-20.0 0.0)
  end
  begin
     id 25 
     name rhumerus
     direction -1 -4.4896e-011 1.02757e-029  
     length 4.62052   
     axis -180 30 90   XYZ
    dof rx ry rz
    limits (-90.0 60.0)
           (-90.0 90.0)
           (-90.0 90.0)
  end
  begin
     id 26 
     name rradius
     direction -1 -4.48982e-011 3.85962e-027   
     length 2.95332   
     axis -180 30 90   XYZ
    dof rx
    limits (-10.0 170.0)
  end
  begin
     id 27 
     name rwrist
     direction -1 -4.48961e-011 7.55118e-027   
     length 1.47666   
     axis -7.18178e-015 -90 -90   XYZ
    dof ry
    limits (-180.0 0.0)
  end
  begin
     id 28
     name rhand
     direction -1 -4.48984e-011 1.50994e-026   
     length 0.990956   
     axis -9.63605e-015 -90 -90   XYZ
    dof rx rz
    limits (-90.0 90.0)
           (-45.0 45.0)
  end
  begin
     id 29
     name rfingers
     direction -1 -4.4892e-011 3.02158e-026   
     length 0.798934   
     axis -1.92718e-014 -90 -90   XYZ
    dof rx
    limits (0.0 90.0)
  end
  begin
     id 30
     name rthumb
     direction -0.707107 -6.34916e-011 0.707107   
     length 1.14711   
     axis -90 -45 3.53137e-014   XYZ
    dof rx rz
    limits (-45.0 45.0)
           (-45.0 45.0)
  end
:hierarchy
  begin
    root lhipjoint rhipjoint lowerback
    lhipjoint lfemur
    lfemur ltibia
    ltibia lfoot
    lfoot ltoes
    rhipjoint rfemur
    rfemur rtibia
    rtibia rfoot
    rfoot rtoes
    lowerback upperback
    upperback thorax
    thorax lowerneck lclavicle rclavicle
    lowerneck upperneck
    upperneck head
    lclavicle lhumerus
    lhumerus lradius
    lradius lwrist
    lwrist lhand lthumb
    lhand lfingers
    rclavicle rhumerus
    rhumerus rradius
    rradius rwrist
    rwrist rhand rthumb
    rhand rfingers
  end

#!OML:ASF H:\ManfredObstacles\Project 1\Capture day 1\Session 1\Male.ASF
:FULLY-SPECIFIED
:DEGREES
249
root 3.03035 16.3265 0.0115411 -174.337 -36.7846 -176.732
lowerback -9.5053 -0.587245 -0.506928
upperback 2.86375 -0.820398 1.09641
thorax 8.40492 -0.462823 1.31055
lowerneck -1.43421 -0.83688 -6.24684
upperneck 5.7207 -1.42275 7.49568
head 2.21724 -0.712323 3.55156
rclavicle -8.20235e-014 7.65321e-015
rhumerus -27.732 -15.9095 -83.2326
rradius 28.8944
rwrist 29.5247
rhand -0.821547 -4.82482
rfingers 7.12502
rthumb 24.8032 -33.2363
lclavicle -8.20235e-014 7.65321e-015
lhumerus -31.2023 16.7411 81.0093
lradius 21.3793
lwrist -28.4335
lhand -7.72566 7.61179
lfingers 7.12502
lthumb 18.1728 36.7829
rfemur -8.04196 -6.26768 26.5298
rtibia 22.4152
rfoot -26.3424 14.6915
rtoes 18.4844
lfemur -34.6368 -1.76658 -15.3416
ltibia 24.5049
lfoot 0.0720105 1.01689
ltoes 8.71962
250
root 2.88982 16.3261 -0.173416 -174.247 -36.692 -176.632
lowerback -9.76973 -0.600979 -0.514132
upperback 2.7608 -0.833838 1.07979
thorax 8.44754 -0.468009 1.29323
lowerneck -1.71965 -0.689464 -6.29247
upperneck 5.92291 -1.22298 7.55195
head 2.32327 -0.607706 3.58925
rclavicle -1.06847e-015 -1.44119e-014
rhumerus -27.7446 -15.666 -83.5451
rradius 28.8447
rwrist 29.4424
rhand -0.682756 -4.92078
rfingers 7.12502
rthumb 24.9363 -33.3139
lclavicle -1.06847e-015 -1.44119e-014
lhumerus -31.6752 17.3251 80.5559
lradius 21.2145
lwrist -28.9251
lhand -7.74673 7.47657
lfingers 7.12502
lthumb 18.1525 36.6495
rfemur -6.65747 -6.22906 26.5168
rtibia 21.1358
rfoot -26.2444 14.7819
rtoes 18.1996
lfemur -34.4571 -0.917452 -15.5768
ltibia 20.8967
lfoot 1.31238 -0.433854
ltoes 8.59103
251
root 2.74592 16.3194 -0.358169 -174.342 -36.5947 -176.244
lowerback -10.0496 -0.566557 -0.317578
upperback 2.66637 -0.819876 1.15664
thorax 8.50592 -0.453125 1.26468
lowerneck -1.98669 -0.572035 -6.43891
upperneck 6.13432 -1.06315 7.65077
head 2.4346 -0.524694 3.66176
rclavicle -1.05207e-013 9.74045e-015
rhumerus -27.7761 -15.5831 -83.6821
rradius 28.7495
rwrist 29.38
rhand -0.599997 -5.084
rfingers 7.12502
rthumb 25.0156 -33.4661
lclavicle -1.05207e-013 9.74045e-015
lhumerus -32.0484 17.9274 80.1819
lradius 20.9757
lwrist -29.3856
lhand -7.70854 7.46661
lfingers 7.12502
lthumb 18.1893 36.6361
rfemur -5.22085 -5.87666 26.7515
rtibia 19.8291
rfoot -26.022 14.6561
rtoes 18.2089
lfemur -34.384 -0.0419589 -15.5979
ltibia 18.0183
lfoot 2.13137 -1.8603
ltoes 8.68688
252
root 2.59658 16.305 -0.546638 -174.225 -36.3992 -176.579
lowerback -10.1379 -0.420928 -0.602041
upperback 2.62679 -0.569345 0.984226
thorax 8.50868 -0.339476 1.28519
lowerneck -2.10901 -0.601888 -6.69584
upperneck 6.22596 -1.11377 7.96807
head 2.50152 -0.547348 3.82632
rclavicle 9.25343e-014 -2.18663e-015
rhumerus -27.9727 -15.9815 -83.674
rradius 28.6472
rwrist 29.6651
rhand -0.657174 -5.12783
rfingers 7.12502
rthumb 24.9608 -33.5175
lclavicle 9.25343e-014 -2.18663e-015
lhumerus -32.235 18.0591 79.8866
lradius 20.5407
lwrist -29.7102
lhand -7.69357 7.50069
lfingers 7.12502
lthumb 18.2037 36.6689
rfemur -3.54978 -5.3526 26.3481
rtibia 18.6135
rfoot -25.8487 14.2772
rtoes 18.5309
lfemur -34.1069 0.365196 -16.1065
ltibia 15.9227
lfoot 2.40916 -2.60393
ltoes 9.16399
253
root 2.43924 16.2837 -0.73258 -174.327 -36.287 -176.365
lowerback -10.2867 -0.22632 -0.298898
upperback 2.52728 -0.339006 0.874577
thorax 8.47778 -0.207672 1.03741
lowerneck -2.11371 -0.669957 -7.00712
upperneck 6.18529 -1.22275 8.42501
head 2.51093 -0.599723 4.04874
rclavicle -4.61926e-014 -2.78299e-015
rhumerus -28.3477 -16.4747 -83.5909
rradius 28.5356
rwrist 30.0149
rhand -0.666583 -5.01686
rfingers 7.12502
rthumb 24.9518 -33.4078
lclavicle -4.61926e-014 -2.78299e-015
lhumerus -32.4932 18.427 79.344
lradius 20.0374
lwrist -30.558
lhand -7.7109 7.52427
lfingers 7.12502
lthumb 18.187 36.694
rfemur -2.1076 -4.85224 26.4498
rtibia 17.6253
rfoot -25.8478 13.83
rtoes 18.7718
lfemur -33.9858 0.486642 -16.0403
ltibia 14.5819
lfoot 2.33895 -2.95192
ltoes 7.58112
254
root 2.28167 16.2629 -0.914436 -174.416 -36.1915 -176.357
lowerback -10.326 -0.161978 -0.35364
upperback 2.49513 -0.243849 0.860814
thorax 8.46396 -0.163524 1.07024
lowerneck -1.90903 -0.679888 -6.77436
upperneck 5.89652 -1.21914 8.1723
head 2.36728 -0.600071 3.90583
rclavicle -1.74434e-014 5.1684e-015
rhumerus -28.6195 -16.6174 -83.4027
rradius 28.3562
rwrist 30.0908
rhand -0.695633 -4.88159
rfingers 7.12502
rthumb 24.9239 -33.2764
lclavicle -1.74434e-014 5.1684e-015
lhumerus -32.7828 19.737 78.5967
lradius 19.4656
lwrist -32.1104
lhand -7.73597 7.458
lfingers 7.12502
lthumb 18.1629 36.63
rfemur -0.768064 -4.38629 26.3829
rtibia 17.0598
rfoot -25.8089 13.1115
rtoes 17.1515
lfemur -33.6455 0.609367 -16.2147
ltibia 13.7869
lfoot 2.37681 -2.63844
ltoes 8.67433
255
root 2.11752 16.2399 -1.10102 -174.317 -36.2035 -176.588
lowerback -10.6145 -0.192991 -0.734838
upperback 2.53981 -0.235248 0.89562
thorax 8.68195 -0.181188 1.32463
lowerneck -1.46365 -0.669593 -5.96723
upperneck 5.31271 -1.15785 7.22597
head 2.05852 -0.57488 3.40373
rclavicle 1.49089e-016 -8.74653e-015
rhumerus -28.743 -16.6151 -83.1038
rradius 28.0504
rwrist 30.1737
rhand -0.852717 -4.85934
rfingers 7.12502
rthumb 24.7734 -33.2749
lclavicle 1.49089e-016 -8.74653e-015
lhumerus -32.9888 20.7238 78.1535
lradius 19.0074
lwrist -32.9511
lhand -7.72451 7.35761
lfingers 7.12502
lthumb 18.1739 36.5286
rfemur 0.365618 -4.07759 26.1172
rtibia 16.8638
rfoot -25.9346 12.4344
rtoes 15.8676
lfemur -33.3156 0.905217 -16.83
ltibia 13.5984
lfoot 2.59 -2.87879
ltoes 7.19434
256
root 1.9414 16.2084 -1.28961 -174.172 -36.226 -176.913
lowerback -10.9002 -0.241609 -1.06256
upperback 2.52927 -0.245534 0.830145
thorax 8.83848 -0.201865 1.43869
lowerneck -1.29372 -0.568487 -5.41982
upperneck 5.02748 -0.997018 6.66305
head 1.9066 -0.495151 3.10218
rclavicle -3.85145e-015 -6.36111e-015
rhumerus -29.0321 -16.6115 -82.8286
rradius 27.7025
rwrist 30.2806
rhand -0.960612 -4.9345
rfingers 7.12502
rthumb 24.67 -33.3642
lclavicle -3.85145e-015 -6.36111e-015
lhumerus -33.2877 21.5765 77.5969
lradius 18.534
lwrist -33.4612
lhand -7.81272 7.30288
lfingers 7.12502
lthumb 18.089 36.4817
rfemur 1.43497 -3.73403 25.7228
rtibia 16.9147
rfoot -25.9384 11.8586
rtoes 14.6333
lfemur -32.8859 1.01506 -17.5523
ltibia 13.9531
lfoot 2.71647 -2.8126
ltoes 7.58157
257
root 1.75292 16.177 -1.47726 -174.191 -36.258 -177.198
lowerback -10.9509 -0.227708 -1.14728
upperback 2.44879 -0.198529 0.661747
thorax 8.77846 -0.176876 1.31555
lowerneck -2.25323 -0.422926 -6.48441
upperneck 5.87378 -0.829019 7.75021
head 2.38023 -0.397896 3.71031
rclavicle -7.82218e-014 1.0138e-014
rhumerus -29.6504 -17.0408 -82.4155
rradius 27.4401
rwrist 30.6049
rhand -0.861663 -4.96423
rfingers 7.12502
rthumb 24.7648 -33.381
lclavicle -7.82218e-014 1.0138e-014
lhumerus -33.6498 23.0594 76.5835
lradius 17.7473
lwrist -34.8608
lhand -8.0348 7.56554
lfingers 7.12502
lthumb 17.8754 36.764
rfemur 2.61784 -3.42602 25.2955
rtibia 17.1225
rfoot -25.8305 11.3465
rtoes 12.6673
lfemur -32.2468 0.880555 -18.1651
ltibia 14.7457
lfoot 3.36395 -3.04468
ltoes 7.50734
258
root 1.5612 16.1614 -1.68172 -174.575 -36.2095 -176.705
lowerback -11.2603 -0.050071 -0.673124
upperback 2.35341 -0.0278008 0.663253
thorax 8.84782 -0.0695665 1.08146
lowerneck -1.32687 -0.602434 -5.49647
upperneck 5.32205 -1.08201 7.01164
head 2.02125 -0.535776 3.2392
rclavicle 3.2551e-015 -8.15017e-015
rhumerus -30.4354 -18.0483 -81.7086
rradius 27.1877
rwrist 31.2568
rhand -0.633919 -4.90237
rfingers 7.12502
rthumb 24.9831 -33.289
lclavicle 3.2551e-015 -8.15017e-015
lhumerus -34.0752 24.98 75.2668
lradius 16.9362
lwrist -37.1655
lhand -7.99296 7.87179
lfingers 7.12502
lthumb 17.9156 37.0666
rfemur 3.56264 -2.70132 25.6508
rtibia 17.608
rfoot -25.5212 10.7236
rtoes 11.6647
lfemur -31.8177 0.812297 -17.9517
ltibia 15.7741
lfoot 4.94959 -3.41601
ltoes 6.28648
259
root 1.36251 16.1658 -1.88335 -174.708 -36.0798 -176.553
lowerback -11.6371 0.102235 -0.496202
upperback 2.25777 0.154792 0.617351
thorax 8.95838 0.0290531 0.968513
lowerneck -1.08704 -0.682859 -5.37293
upperneck 5.31223 -1.21166 7.05591
head 1.98236 -0.603567 3.22693
rclavicle -1.91579e-014 3.29983e-014
rhumerus -31.1395 -19.0364 -80.9288
rradius 26.7422
rwrist 31.8886
rhand -0.675853 -4.81602
rfingers 7.12502
rthumb 24.9429 -33.2082
lclavicle -1.91579e-014 3.29983e-014
lhumerus -34.5571 26.6197 74.0675
lradius 16.3561
lwrist -39.0842
lhand -7.84432 7.95352
lfingers 7.12502
lthumb 18.0586 37.1352
rfemur 4.16732 -2.05132 25.6619
rtibia 18.6002
rfoot -24.9931 10.2608
rtoes 10.324
lfemur -31.6051 0.930713 -18.0563
ltibia 16.8894
lfoot 7.04953 -3.89829
ltoes 7.35443
260
root 1.16369 16.1869 -2.08789 -174.546 -35.9552 -177.027
lowerback -11.974 0.0931315 -1.02327
upperback 2.20053 0.232872 0.526793
thorax 9.08877 0.0412269 1.18667
lowerneck -0.975163 -0.661832 -5.43777
upperneck 5.34875 -1.20589 7.27395
head 1.97774 -0.602322 3.31524
rclavicle 6.56486e-014 -2.127e-014
rhumerus -31.7303 -19.7273 -80.1608
rradius 26.1571
rwrist 32.567
rhand -0.927802 -4.87162
rfingers 7.12502
rthumb 24.7014 -33.2971
lclavicle 6.56486e-014 -2.127e-014
lhumerus -34.9953 27.9058 73.1968
lradius 15.8414
lwrist -40.1757
lhand -7.94335 8.2945
lfingers 7.12502
lthumb 17.9633 37.4849
rfemur 4.49238 -1.46362 25.1011
rtibia 20.2079
rfoot -24.138 9.97957
rtoes 9.47137
lfemur -31.3602 1.48393 -18.8494
ltibia 18.2036
lfoot 8.63523 -4.78311
ltoes 11.7428
261
root 0.973197 16.21 -2.29289 -174.352 -35.9541 -177.74
lowerback -12.1652 -0.0257394 -1.86318
upperback 2.18999 0.215308 0.429096
thorax 9.18794 -0.00987693 1.55482
lowerneck -1.02265 -0.641852 -5.62988
upperneck 5.50661 -1.2015 7.55461
head 2.04507 -0.600043 3.45255
rclavicle -5.7896e-015 -1.45113e-014
rhumerus -32.3154 -20.6985 -79.2126
rradius 25.5641
rwrist 33.5861
rhand -0.88835 -4.98422
rfingers 7.12502
rthumb 24.7392 -33.4045
lclavicle -5.7896e-015 -1.45113e-014
lhumerus -35.5587 29.7668 72.0355
lradius 15.2914
lwrist -41.8338
lhand -8.07389 8.78292
lfingers 7.12502
lthumb 17.8377 37.9848
rfemur 4.26688 -0.97855 24.3975
rtibia 23.0608
rfoot -23.115 9.85156
rtoes 10.5145
lfemur -30.6405 2.07282 -19.8248
ltibia 19.0922
lfoot 8.84462 -5.80925
ltoes 11.7586
262
root 0.791566 16.2145 -2.49011 -174.501 -36.0574 -178.063
lowerback -12.1869 -0.128476 -2.36242
upperback 2.25526 0.158532 0.412382
thorax 9.2747 -0.0652862 1.80846
lowerneck -1.15827 -0.669599 -5.83202
upperneck 5.70795 -1.25589 7.78716
head 2.14733 -0.625751 3.5756
rclavicle -1.04362e-014 1.05356e-014
rhumerus -32.9304 -22.1063 -78.0788
rradius 25.0283
rwrist 34.7239
rhand -0.861379 -4.9522
rfingers 7.12502
rthumb 24.7651 -33.3689
lclavicle -1.04362e-014 1.05356e-014
lhumerus -36.1343 31.6429 70.7515
lradius 14.827
lwrist -43.6945
lhand -8.03131 8.73786
lfingers 7.12502
lthumb 17.8787 37.936
rfemur 3.63069 -1.01794 24.0407
rtibia 26.893
rfoot -21.7605 9.58644
rtoes 9.20856
lfemur -29.6571 2.53301 -20.355
ltibia 19.7728
lfoot 8.05148 -7.03177
ltoes 6.02047
263
root 0.615678 16.2322 -2.68137 -173.339 -36.0692 -180.02
lowerback -12.5581 -0.385139 -4.27482
upperback 2.25129 0.159353 0.0557234
thorax 9.49184 -0.164656 2.50893
lowerneck -1.14111 -0.680555 -5.89137
upperneck 5.75559 -1.2816 7.89371
head 2.16459 -0.63922 3.62476
rclavicle 1.24862e-013 -1.41137e-014
rhumerus -33.569 -23.5341 -76.9232
rradius 24.5163
rwrist 35.7527
rhand -1.09015 -4.83363
rfingers 7.12502
rthumb 24.5458 -33.2803
lclavicle 1.24862e-013 -1.41137e-014
lhumerus -36.6312 33.0744 69.62
lradius 14.4521
lwrist -45.071
lhand -7.86107 8.23612
lfingers 7.12502
lthumb 18.0425 37.4193
rfemur 2.08915 -1.64042 22.0888
rtibia 31.4363
rfoot -19.6827 9.43086
rtoes 6.26914
lfemur -28.935 2.87744 -22.3242
ltibia 20.3654
lfoot 7.2732 -8.35538
ltoes 4.83209
